# File created by Blade
# Date/Time:  Thu Jan 22 19:49:10 2015
#---------------------------------------------------------
:version 1.10
:name HOM
:units
  mass 1.0
  length 1.000000
  angle deg
:documentation
     Acclaim Skeleton File
:root
   axis xyz
   order TX TY TZ RX RY RZ
   position 0.000000 0.000000 0.000000
   orientation 0 0 0
:bonedata
   begin
      id 1
      name RightUpLeg_dum
      direction -1.000000 0.000000 0.000000
      length 4.478084
      axis 0.0 0.0 0.0 xyz
   end
   begin
      id 2
      name LeftUpLeg_dum
      direction 1.000000 0.000000 0.000000
      length 4.478084
      axis 0.0 0.0 0.0 xyz
   end
   begin
      id 3
      name Spine_dum
      direction 0.000000 1.000000 0.000000
      length 6.068208
      axis 0.0 0.0 0.0 xyz
   end
   begin
      id 4
      name RightUpLeg
      direction 0.000000 -1.000000 0.000000
      length 16.405774
      axis 0.0 0.0 0.0 xyz
      dof rx ry rz
   end
   begin
      id 5
      name RightLeg
      direction 0.000000 -1.000000 0.000000
      length 14.644143
      axis 0.0 0.0 0.0 xyz
      dof rx ry rz
   end
   begin
      id 6
      name RightFoot
      direction 0.000000 -0.258819 0.965926
      length 5.806150
      axis 15.0 0.0 0.0 xyz
      dof rx ry rz
   end
   begin
      id 7
      name RightToeBase
      direction 0.000000 0.000000 1.000000
      length 2.952750
      axis 0.0 0.0 0.0 xyz
      dof rx ry rz
   end
   begin
      id 8
      name LeftUpLeg
      direction 0.000000 -1.000000 0.000000
      length 16.405774
      axis 0.0 0.0 0.0 xyz
      dof rx ry rz
   end
   begin
      id 9
      name LeftLeg
      direction 0.000000 -1.000000 0.000000
      length 14.644143
      axis 0.0 0.0 0.0 xyz
      dof rx ry rz
   end
   begin
      id 10
      name LeftFoot
      direction 0.000000 -0.258819 0.965926
      length 5.806150
      axis 15.0 0.0 0.0 xyz
      dof rx ry rz
   end
   begin
      id 11
      name LeftToeBase
      direction 0.000000 0.000000 1.000000
      length 2.952750
      axis 0.0 0.0 0.0 xyz
      dof rx ry rz
   end
   begin
      id 12
      name Spine
      direction 0.000000 1.000000 0.000000
      length 0.000000
      axis 0.0 0.0 0.0 xyz
      dof rx ry rz
   end
   begin
      id 13
      name Spine_dum1
      direction 0.000000 1.000000 0.000000
      length 10.013923
      axis 0.0 0.0 0.0 xyz
   end
   begin
      id 14
      name Spine_dum2
      direction 0.000000 1.000000 0.000000
      length 10.013923
      axis 0.0 0.0 0.0 xyz
   end
   begin
      id 15
      name Spine_dum3
      direction 0.000000 1.000000 0.000000
      length 15.777476
      axis 0.0 0.0 0.0 xyz
   end
   begin
      id 16
      name RightShoulder
      direction -1.000000 0.000000 0.000000
      length 7.190220
      axis 0.0 0.0 90.0 xyz
      dof rx ry rz
   end
   begin
      id 17
      name RightArm
      direction -1.000000 0.000000 0.000000
      length 10.177469
      axis 0.0 0.0 90.0 xyz
      dof rx ry rz
   end
   begin
      id 18
      name RightForeArm
      direction -1.000000 0.000000 0.000000
      length 8.392114
      axis 0.0 0.0 90.0 xyz
      dof ry rz rx
   end
   begin
      id 19
      name RightHand
      direction -1.000000 0.000000 0.000000
      length 0.000000
      axis 0.0 0.0 90.0 xyz
      dof rx ry rz
   end
   begin
      id 20
      name RightHand_dum1
      direction -1.000000 0.000000 0.000000
      length 3.937000
      axis 0.0 0.0 90.0 xyz
   end
   begin
      id 21
      name RightHand_dum2
      direction 0.000000 0.000000 0.000000
      length 0.000000
      axis 0.0 0.0 90.0 xyz
   end
   begin
      id 22
      name RightHandThumb1
      direction 0.000000 0.000000 1.000000
      length 3.937000
      axis 0.0 0.0 90.0 xyz
      dof rx rz ry
   end
   begin
      id 23
      name LeftShoulder
      direction 1.000000 0.000000 0.000000
      length 7.190220
      axis 0.0 0.0 -90.0 xyz
      dof rx ry rz
   end
   begin
      id 24
      name LeftArm
      direction 1.000000 0.000000 0.000000
      length 10.177469
      axis 0.0 0.0 -90.0 xyz
      dof rx ry rz
   end
   begin
      id 25
      name LeftForeArm
      direction 1.000000 0.000000 0.000000
      length 8.392114
      axis 0.0 0.0 -90.0 xyz
      dof ry rz rx
   end
   begin
      id 26
      name LeftHand
      direction 1.000000 0.000000 0.000000
      length 0.000000
      axis 0.0 0.0 -90.0 xyz
      dof rx ry rz
   end
   begin
      id 27
      name LeftHand_dum1
      direction 1.000000 0.000000 0.000000
      length 3.937000
      axis 0.0 0.0 -90.0 xyz
   end
   begin
      id 28
      name LeftHand_dum2
      direction 0.000000 0.000000 0.000000
      length 0.000000
      axis 0.0 0.0 -90.0 xyz
   end
   begin
      id 29
      name LeftHandThumb1
      direction 0.000000 0.000000 1.000000
      length 3.937000
      axis 0.0 0.0 -90.0 xyz
      dof rx rz ry
   end
   begin
      id 30
      name Head
      direction 0.000000 1.000000 0.000000
      length 4.527550
      axis 0.0 0.0 0.0 xyz
      dof rx ry rz
   end
:hierarchy
   begin
      root RightUpLeg_dum LeftUpLeg_dum Spine_dum
      RightUpLeg_dum RightUpLeg
      LeftUpLeg_dum LeftUpLeg
      Spine_dum Spine
      RightUpLeg RightLeg
      RightLeg RightFoot
      RightFoot RightToeBase
      LeftUpLeg LeftLeg
      LeftLeg LeftFoot
      LeftFoot LeftToeBase
      Spine Spine_dum1 Spine_dum2 Spine_dum3
      Spine_dum1 RightShoulder
      Spine_dum2 LeftShoulder
      Spine_dum3 Head
      RightShoulder RightArm
      RightArm RightForeArm
      RightForeArm RightHand
      RightHand RightHand_dum1 RightHand_dum2
      RightHand_dum2 RightHandThumb1
      LeftShoulder LeftArm
      LeftArm LeftForeArm
      LeftForeArm LeftHand
      LeftHand LeftHand_dum1 LeftHand_dum2
      LeftHand_dum2 LeftHandThumb1
   end

# File created by Blade
# Date/Time:  Thu Jan 22 19:49:01 2015
# Frame Rate: 120.000 fps
#------------------------------------------------------
:FULLY-SPECIFIED
:DEGREES
482
root -1.841058 7.832761 -5.775323 21.834128 -1.125276 2.249653
RightUpLeg -135.029354 -28.946567 2.587907
RightLeg 149.341839 -0.000000 -0.000000
RightFoot -35.656681 0.127550 0.077454
RightToeBase -5.302071 -0.000000 0.000000
LeftUpLeg -130.412123 39.433833 2.409249
LeftLeg 146.829462 -0.000000 -0.000000
LeftFoot -30.525092 -14.184906 -14.382713
LeftToeBase 2.901933 -0.000000 -0.000000
Spine 27.475085 -0.788164 -4.305885
RightShoulder 8.299808 20.112122 -22.125266
RightArm 69.093152 -7.803540 62.970211
RightForeArm -17.206637 -0.000000 11.451976
RightHand 6.509171 -0.000000 -7.118606
RightHandThumb1 -24.326973 -0.000000 -32.862282
LeftShoulder 1.276398 -26.542492 26.160709
LeftArm 63.195656 12.949506 -65.984546
LeftForeArm 27.911365 -0.000000 7.848326
LeftHand -7.218143 0.000000 4.014703
LeftHandThumb1 -26.253704 0.000000 33.147579
Head -55.272494 0.639135 0.086449
483
root -1.852319 7.865190 -5.781813 21.904013 -1.112573 2.226316
RightUpLeg -134.926580 -28.855356 2.644897
RightLeg 149.260535 -0.000000 -0.000000
RightFoot -35.744919 0.123315 0.192015
RightToeBase -5.181816 -0.000000 0.000000
LeftUpLeg -130.377580 39.412808 2.361781
LeftLeg 146.722602 -0.000000 -0.000000
LeftFoot -30.566412 -14.173326 -14.382848
LeftToeBase 2.944883 -0.000000 -0.000000
Spine 27.415709 -0.767786 -4.285362
RightShoulder 8.426477 19.844363 -21.899374
RightArm 68.775938 -8.338481 62.896086
RightForeArm -17.163714 0.000000 11.318151
RightHand 6.367708 0.000000 -6.962651
RightHandThumb1 -24.326973 -0.000000 -32.862282
LeftShoulder 1.364432 -26.345120 25.961461
LeftArm 62.680139 13.398605 -66.615853
LeftForeArm 28.608371 0.000000 7.548558
LeftHand -7.178628 0.000000 3.680958
LeftHandThumb1 -26.253704 0.000000 33.147579
Head -55.295464 0.630392 0.095995
484
root -1.860050 7.898273 -5.782381 21.926963 -1.133964 2.215738
RightUpLeg -134.753950 -28.783815 2.634134
RightLeg 149.169579 -0.000000 -0.000000
RightFoot -35.866318 0.137396 0.272634
RightToeBase -5.255678 -0.000000 0.000000
LeftUpLeg -130.244267 39.467126 2.341626
LeftLeg 146.633149 -0.000000 -0.000000
LeftFoot -30.601243 -14.300129 -14.409534
LeftToeBase 2.976635 -0.000000 -0.000000
Spine 27.403869 -0.717697 -4.297865
RightShoulder 8.513971 19.563344 -21.670303
RightArm 68.495645 -8.850149 62.854769
RightForeArm -17.389193 -0.000000 11.194881
RightHand 6.188062 -0.000000 -6.800019
RightHandThumb1 -24.326973 -0.000000 -32.862282
LeftShoulder 1.452146 -26.138126 25.756452
LeftArm 62.243816 13.977605 -67.031598
LeftForeArm 28.437241 -0.000000 7.211433
LeftHand -7.150782 -0.000000 3.847589
LeftHandThumb1 -26.253704 0.000000 33.147579
Head -55.308959 0.647345 0.185530
485
root -1.868630 7.933824 -5.785025 21.948216 -1.158874 2.198210
RightUpLeg -134.604912 -28.696469 2.674883
RightLeg 149.081112 -0.000000 -0.000000
RightFoot -35.936645 0.111378 0.307649
RightToeBase -5.375077 -0.000000 0.000000
LeftUpLeg -130.101554 39.515550 2.320033
LeftLeg 146.535112 -0.000000 -0.000000
LeftFoot -30.651510 -14.403115 -14.416713
LeftToeBase 3.010659 -0.000000 -0.000000
Spine 27.412087 -0.662074 -4.300859
RightShoulder 8.602767 19.312987 -21.464614
RightArm 68.201856 -9.376064 62.863386
RightForeArm -17.456091 -0.000000 11.062603
RightHand 6.047251 -0.000000 -6.877695
RightHandThumb1 -24.326973 -0.000000 -32.862282
LeftShoulder 1.536422 -25.999828 25.558705
LeftArm 61.688785 14.521508 -67.444651
LeftForeArm 28.574209 -0.000000 7.040187
LeftHand -7.270442 -0.000000 3.501986
LeftHandThumb1 -26.253704 0.000000 33.147579
Head -55.333433 0.635272 0.212369
486
root -1.878449 7.969277 -5.789741 21.987753 -1.202200 2.185874
RightUpLeg -134.479135 -28.575909 2.710265
RightLeg 148.983813 -0.000000 -0.000000
RightFoot -36.014043 0.105443 0.391984
RightToeBase -5.405190 -0.000000 0.000000
LeftUpLeg -129.982809 39.575106 2.265894
LeftLeg 146.440300 -0.000000 -0.000000
LeftFoot -30.673918 -14.420451 -14.309536
LeftToeBase 2.566200 -0.000000 -0.000000
Spine 27.407086 -0.588712 -4.334136
RightShoulder 8.648035 19.022974 -21.269806
RightArm 67.963733 -9.861284 62.942799
RightForeArm -17.602968 -0.000000 10.934173
RightHand 6.015539 0.000000 -6.892846
RightHandThumb1 -24.326973 -0.000000 -32.862282
LeftShoulder 1.628931 -25.889575 25.390727
LeftArm 61.075712 15.110305 -67.765302
LeftForeArm 28.431543 -0.000000 6.944796
LeftHand -7.030608 -0.000000 3.328906
LeftHandThumb1 -26.253704 0.000000 33.147579
Head -55.367373 0.625745 0.297013
487
root -1.887248 8.004150 -5.793725 22.030434 -1.237371 2.169399
RightUpLeg -134.360663 -28.476508 2.741160
RightLeg 148.880274 -0.000000 -0.000000
RightFoot -36.103867 0.045084 0.377270
RightToeBase -5.195018 -0.000000 0.000000
LeftUpLeg -129.860983 39.631195 2.223304
LeftLeg 146.345233 -0.000000 -0.000000
LeftFoot -30.755564 -14.513006 -14.308295
LeftToeBase 2.591610 -0.000000 -0.000000
Spine 27.396992 -0.555971 -4.353472
RightShoulder 8.700563 18.716390 -21.121375
RightArm 67.791787 -10.350643 62.977149
RightForeArm -17.691195 -0.000000 10.793550
RightHand 5.997367 -0.000000 -6.899717
RightHandThumb1 -24.326973 -0.000000 -32.862282
LeftShoulder 1.707922 -25.743387 25.190516
LeftArm 60.420005 15.586623 -68.226724
LeftForeArm 28.682541 -0.000000 6.942880
LeftHand -6.954649 0.000000 3.251226
LeftHandThumb1 -26.253704 0.000000 33.147579
Head -55.393347 0.638426 0.362345
488
root -1.895270 8.041049 -5.799079 22.080946 -1.273289 2.152010
RightUpLeg -134.206757 -28.399476 2.736546
RightLeg 148.772908 -0.000000 -0.000000
RightFoot -36.177527 0.061186 0.324979
RightToeBase -5.299629 -0.000000 0.000000
LeftUpLeg -129.798338 39.628957 2.094675
LeftLeg 146.238333 -0.000000 -0.000000
LeftFoot -30.868382 -14.532836 -14.461516
LeftToeBase 2.912600 -0.000000 -0.000000
Spine 27.386883 -0.511011 -4.376333
RightShoulder 8.769689 18.414769 -20.954512
RightArm 67.584036 -10.776657 63.060541
RightForeArm -17.754546 -0.000000 10.676064
RightHand 6.152948 0.000000 -6.897594
RightHandThumb1 -24.326973 -0.000000 -32.862282
LeftShoulder 1.785199 -25.523896 24.997247
LeftArm 59.890030 16.116522 -68.569863
LeftForeArm 28.576406 -0.000000 6.898189
LeftHand -6.957370 -0.000000 3.365125
LeftHandThumb1 -26.253704 0.000000 33.147579
Head -55.412930 0.671004 0.367822
489
root -1.899473 8.076988 -5.803524 22.121336 -1.303635 2.121010
RightUpLeg -134.068742 -28.322465 2.779316
RightLeg 148.647701 -0.000000 -0.000000
RightFoot -36.295191 0.136580 0.545714
RightToeBase -5.173729 -0.000000 0.000000
LeftUpLeg -129.691227 39.664383 2.070338
LeftLeg 146.152490 -0.000000 -0.000000
LeftFoot -30.926638 -14.614213 -14.474658
LeftToeBase 3.070902 -0.000000 -0.000000
Spine 27.392852 -0.579431 -4.418722
RightShoulder 8.945046 18.214663 -20.785283
RightArm 67.307606 -11.210689 63.159859
RightForeArm -17.786175 -0.000000 10.641063
RightHand 6.220655 -0.000000 -6.928437
RightHandThumb1 -24.326973 -0.000000 -32.862282
LeftShoulder 1.763098 -25.268014 24.823744
LeftArm 59.316627 16.596727 -68.978286
LeftForeArm 28.630006 -0.000000 6.887385
LeftHand -6.950475 0.000000 3.505405
LeftHandThumb1 -26.253704 0.000000 33.147579
Head -55.439326 0.794902 0.403075
490
root -1.907829 8.112559 -5.809584 22.171961 -1.352590 2.116708
RightUpLeg -133.969368 -28.202757 2.818176
RightLeg 148.544988 -0.000000 -0.000000
RightFoot -36.346728 0.071526 0.542659
RightToeBase -5.247692 -0.000000 0.000000
LeftUpLeg -129.583514 39.725534 2.014541
LeftLeg 146.052988 -0.000000 -0.000000
LeftFoot -30.964174 -14.727180 -14.493009
LeftToeBase 3.183789 -0.000000 -0.000000
Spine 27.396171 -0.508209 -4.450545
RightShoulder 8.968512 17.985057 -20.659539
RightArm 67.012869 -11.584260 63.487924
RightForeArm -18.114020 -0.000000 10.596349
RightHand 6.122295 -0.000000 -6.987253
RightHandThumb1 -24.326973 -0.000000 -32.862282
LeftShoulder 1.877565 -25.001924 24.567533
LeftArm 58.875214 17.009536 -69.323429
LeftForeArm 28.825741 0.000000 6.772932
LeftHand -6.651720 -0.000000 3.320438
LeftHandThumb1 -26.253704 0.000000 33.147579
Head -55.477175 0.776660 0.400639
491
root -1.913647 8.147452 -5.814145 22.217572 -1.386843 2.083218
RightUpLeg -133.860154 -28.111439 2.878805
RightLeg 148.425020 -0.000000 -0.000000
RightFoot -36.483327 0.221530 0.917964
RightToeBase -4.740784 -0.000000 0.000000
LeftUpLeg -129.481969 39.773161 1.995160
LeftLeg 145.960148 -0.000000 -0.000000
LeftFoot -31.012036 -14.763851 -14.484893
LeftToeBase 2.492596 -0.000000 -0.000000
Spine 27.421995 -0.473288 -4.439727
RightShoulder 9.012523 17.874797 -20.537333
RightArm 66.672370 -11.986524 63.819126
RightForeArm -18.326038 -0.000000 10.499251
RightHand 6.275316 -0.000000 -7.015843
RightHandThumb1 -24.326973 -0.000000 -32.862282
LeftShoulder 1.951512 -24.764666 24.308761
LeftArm 58.448383 17.521916 -69.571522
LeftForeArm 28.779082 -0.000000 6.675239
LeftHand -6.523891 0.000000 3.607345
LeftHandThumb1 -26.253704 0.000000 33.147579
Head -55.555455 0.788704 0.418030
492
root -1.918101 8.180672 -5.820644 22.257383 -1.427634 2.057580
RightUpLeg -133.748624 -28.011111 2.924623
RightLeg 148.316267 -0.000000 -0.000000
RightFoot -36.569778 0.200968 0.995472
RightToeBase -4.624889 -0.000000 0.000000
LeftUpLeg -129.385951 39.822528 1.975259
LeftLeg 145.870033 -0.000000 -0.000000
LeftFoot -31.035696 -14.848735 -14.501131
LeftToeBase 2.515996 -0.000000 -0.000000
Spine 27.456145 -0.457639 -4.465943
RightShoulder 9.069423 17.617386 -20.384842
RightArm 66.571388 -12.393316 63.823830
RightForeArm -18.268550 0.000000 10.407301
RightHand 6.417139 -0.000000 -6.932271
RightHandThumb1 -24.326973 -0.000000 -32.862282
LeftShoulder 2.014417 -24.553081 24.088425
LeftArm 57.999717 17.970365 -69.869081
LeftForeArm 28.883392 -0.000000 6.556910
LeftHand -6.461406 -0.000000 3.687964
LeftHandThumb1 -26.253704 0.000000 33.147579
Head -55.621589 0.836885 0.430819
